<mxfile host="app.diagrams.net" modified="2023-04-28T07:53:55.421Z" agent="Mozilla/5.0 (Windows NT 10.0; Win64; x64) AppleWebKit/537.36 (KHTML, like Gecko) Chrome/110.0.0.0 Safari/537.36" etag="DSM6tQimV1uAzaSNEqxJ" version="21.2.1" type="github">
  <diagram name="第 1 页" id="JHvQbMZQgtqQPzhrSUu5">
    <mxGraphModel dx="1050" dy="573" grid="1" gridSize="10" guides="1" tooltips="1" connect="1" arrows="1" fold="1" page="1" pageScale="1" pageWidth="827" pageHeight="1169" math="0" shadow="0">
      <root>
        <mxCell id="0" />
        <mxCell id="1" parent="0" />
        <mxCell id="uLttGmlVsf933TdkfEoV-1" value="&lt;font style=&quot;font-size: 20px;&quot;&gt;上层应用/外部应用&lt;/font&gt;" style="rounded=0;whiteSpace=wrap;html=1;" vertex="1" parent="1">
          <mxGeometry x="80" y="80" width="920" height="40" as="geometry" />
        </mxCell>
        <mxCell id="uLttGmlVsf933TdkfEoV-2" value="&lt;font style=&quot;font-size: 18px;&quot;&gt;数据服务中心&lt;/font&gt;" style="rounded=0;whiteSpace=wrap;html=1;" vertex="1" parent="1">
          <mxGeometry x="80" y="130" width="120" height="60" as="geometry" />
        </mxCell>
        <mxCell id="uLttGmlVsf933TdkfEoV-8" value="&lt;font style=&quot;font-size: 18px;&quot;&gt;大数据&lt;br&gt;基础平台&lt;/font&gt;" style="rounded=0;whiteSpace=wrap;html=1;" vertex="1" parent="1">
          <mxGeometry x="80" y="200" width="120" height="270" as="geometry" />
        </mxCell>
        <mxCell id="uLttGmlVsf933TdkfEoV-9" value="" style="rounded=0;whiteSpace=wrap;html=1;" vertex="1" parent="1">
          <mxGeometry x="220" y="200" width="500" height="60" as="geometry" />
        </mxCell>
        <mxCell id="uLttGmlVsf933TdkfEoV-10" value="&lt;font style=&quot;font-size: 18px;&quot;&gt;统一计算&lt;/font&gt;" style="rounded=0;whiteSpace=wrap;html=1;strokeColor=none;" vertex="1" parent="1">
          <mxGeometry x="234" y="210" width="90" height="40" as="geometry" />
        </mxCell>
        <mxCell id="uLttGmlVsf933TdkfEoV-11" value="&lt;font style=&quot;font-size: 14px;&quot;&gt;批处理&lt;/font&gt;" style="rounded=0;whiteSpace=wrap;html=1;" vertex="1" parent="1">
          <mxGeometry x="330" y="210" width="80" height="40" as="geometry" />
        </mxCell>
        <mxCell id="uLttGmlVsf933TdkfEoV-12" value="&lt;font style=&quot;font-size: 14px;&quot;&gt;流处理&lt;/font&gt;" style="rounded=0;whiteSpace=wrap;html=1;" vertex="1" parent="1">
          <mxGeometry x="427" y="210" width="80" height="40" as="geometry" />
        </mxCell>
        <mxCell id="uLttGmlVsf933TdkfEoV-13" value="&lt;font style=&quot;font-size: 14px;&quot;&gt;AI&lt;/font&gt;" style="rounded=0;whiteSpace=wrap;html=1;" vertex="1" parent="1">
          <mxGeometry x="526" y="210" width="80" height="40" as="geometry" />
        </mxCell>
        <mxCell id="uLttGmlVsf933TdkfEoV-14" value="&lt;font style=&quot;font-size: 14px;&quot;&gt;其他&lt;/font&gt;" style="rounded=0;whiteSpace=wrap;html=1;" vertex="1" parent="1">
          <mxGeometry x="620" y="210" width="80" height="40" as="geometry" />
        </mxCell>
        <mxCell id="uLttGmlVsf933TdkfEoV-20" value="" style="rounded=0;whiteSpace=wrap;html=1;" vertex="1" parent="1">
          <mxGeometry x="220" y="340" width="500" height="60" as="geometry" />
        </mxCell>
        <mxCell id="uLttGmlVsf933TdkfEoV-22" value="" style="rounded=0;whiteSpace=wrap;html=1;" vertex="1" parent="1">
          <mxGeometry x="220" y="410" width="780" height="60" as="geometry" />
        </mxCell>
        <mxCell id="uLttGmlVsf933TdkfEoV-23" value="&lt;font style=&quot;font-size: 18px;&quot;&gt;统一接入&lt;/font&gt;" style="rounded=0;whiteSpace=wrap;html=1;strokeColor=none;" vertex="1" parent="1">
          <mxGeometry x="234" y="350" width="90" height="40" as="geometry" />
        </mxCell>
        <mxCell id="uLttGmlVsf933TdkfEoV-24" value="&lt;font style=&quot;font-size: 14px;&quot;&gt;离线ETL&lt;/font&gt;" style="rounded=0;whiteSpace=wrap;html=1;" vertex="1" parent="1">
          <mxGeometry x="330" y="350" width="80" height="40" as="geometry" />
        </mxCell>
        <mxCell id="uLttGmlVsf933TdkfEoV-25" value="&lt;font style=&quot;font-size: 14px;&quot;&gt;实时采集&lt;/font&gt;" style="rounded=0;whiteSpace=wrap;html=1;" vertex="1" parent="1">
          <mxGeometry x="427" y="350" width="80" height="40" as="geometry" />
        </mxCell>
        <mxCell id="uLttGmlVsf933TdkfEoV-26" value="&lt;font style=&quot;font-size: 14px;&quot;&gt;实时采集&lt;/font&gt;" style="rounded=0;whiteSpace=wrap;html=1;" vertex="1" parent="1">
          <mxGeometry x="526" y="350" width="80" height="40" as="geometry" />
        </mxCell>
        <mxCell id="uLttGmlVsf933TdkfEoV-27" value="&lt;font style=&quot;font-size: 18px;&quot;&gt;数据源&lt;/font&gt;" style="rounded=0;whiteSpace=wrap;html=1;strokeColor=none;" vertex="1" parent="1">
          <mxGeometry x="234" y="420" width="90" height="40" as="geometry" />
        </mxCell>
        <mxCell id="uLttGmlVsf933TdkfEoV-28" value="&lt;font style=&quot;font-size: 14px;&quot;&gt;PLC设备&lt;/font&gt;" style="rounded=0;whiteSpace=wrap;html=1;" vertex="1" parent="1">
          <mxGeometry x="330" y="420" width="80" height="40" as="geometry" />
        </mxCell>
        <mxCell id="uLttGmlVsf933TdkfEoV-29" value="&lt;font style=&quot;font-size: 14px;&quot;&gt;串口设备&lt;/font&gt;" style="rounded=0;whiteSpace=wrap;html=1;" vertex="1" parent="1">
          <mxGeometry x="716" y="420" width="80" height="40" as="geometry" />
        </mxCell>
        <mxCell id="uLttGmlVsf933TdkfEoV-30" value="&lt;font style=&quot;font-size: 14px;&quot;&gt;消防平台&lt;/font&gt;" style="rounded=0;whiteSpace=wrap;html=1;" vertex="1" parent="1">
          <mxGeometry x="427" y="420" width="80" height="40" as="geometry" />
        </mxCell>
        <mxCell id="uLttGmlVsf933TdkfEoV-31" value="&lt;font style=&quot;font-size: 14px;&quot;&gt;紧急电话平台&lt;/font&gt;" style="rounded=0;whiteSpace=wrap;html=1;" vertex="1" parent="1">
          <mxGeometry x="526" y="420" width="80" height="40" as="geometry" />
        </mxCell>
        <mxCell id="uLttGmlVsf933TdkfEoV-32" value="&lt;font style=&quot;font-size: 14px;&quot;&gt;液位仪&lt;/font&gt;" style="rounded=0;whiteSpace=wrap;html=1;" vertex="1" parent="1">
          <mxGeometry x="620" y="420" width="80" height="40" as="geometry" />
        </mxCell>
        <mxCell id="uLttGmlVsf933TdkfEoV-33" value="&lt;span style=&quot;font-size: 14px;&quot;&gt;事件检测平台&lt;/span&gt;" style="rounded=0;whiteSpace=wrap;html=1;" vertex="1" parent="1">
          <mxGeometry x="810" y="420" width="80" height="40" as="geometry" />
        </mxCell>
        <mxCell id="uLttGmlVsf933TdkfEoV-15" value="" style="rounded=0;whiteSpace=wrap;html=1;container=0;" vertex="1" parent="1">
          <mxGeometry x="220" y="270" width="500" height="60" as="geometry" />
        </mxCell>
        <mxCell id="uLttGmlVsf933TdkfEoV-16" value="&lt;font style=&quot;font-size: 18px;&quot;&gt;统一存储&lt;/font&gt;" style="rounded=0;whiteSpace=wrap;html=1;strokeColor=none;container=0;" vertex="1" parent="1">
          <mxGeometry x="234" y="280" width="90" height="40" as="geometry" />
        </mxCell>
        <mxCell id="uLttGmlVsf933TdkfEoV-17" value="&lt;font style=&quot;font-size: 14px;&quot;&gt;Redis&lt;/font&gt;" style="rounded=0;whiteSpace=wrap;html=1;container=0;" vertex="1" parent="1">
          <mxGeometry x="330" y="280" width="80" height="40" as="geometry" />
        </mxCell>
        <mxCell id="uLttGmlVsf933TdkfEoV-18" value="&lt;font style=&quot;font-size: 14px;&quot;&gt;PostgreSQL&lt;/font&gt;" style="rounded=0;whiteSpace=wrap;html=1;container=0;" vertex="1" parent="1">
          <mxGeometry x="427" y="280" width="80" height="40" as="geometry" />
        </mxCell>
        <mxCell id="uLttGmlVsf933TdkfEoV-34" value="&lt;span style=&quot;font-size: 14px;&quot;&gt;其他&lt;/span&gt;" style="rounded=0;whiteSpace=wrap;html=1;" vertex="1" parent="1">
          <mxGeometry x="902" y="420" width="80" height="40" as="geometry" />
        </mxCell>
        <mxCell id="uLttGmlVsf933TdkfEoV-35" value="" style="group" vertex="1" connectable="0" parent="1">
          <mxGeometry x="220" y="130" width="500" height="60" as="geometry" />
        </mxCell>
        <mxCell id="uLttGmlVsf933TdkfEoV-3" value="" style="rounded=0;whiteSpace=wrap;html=1;" vertex="1" parent="uLttGmlVsf933TdkfEoV-35">
          <mxGeometry width="500" height="60" as="geometry" />
        </mxCell>
        <mxCell id="uLttGmlVsf933TdkfEoV-4" value="&lt;font style=&quot;font-size: 14px;&quot;&gt;REST API 服务&lt;/font&gt;" style="rounded=0;whiteSpace=wrap;html=1;" vertex="1" parent="uLttGmlVsf933TdkfEoV-35">
          <mxGeometry x="13.20754716981132" y="10" width="109.43396226415095" height="40" as="geometry" />
        </mxCell>
        <mxCell id="uLttGmlVsf933TdkfEoV-5" value="&lt;font style=&quot;font-size: 14px;&quot;&gt;数据库服务&lt;/font&gt;" style="rounded=0;whiteSpace=wrap;html=1;" vertex="1" parent="uLttGmlVsf933TdkfEoV-35">
          <mxGeometry x="132.0754716981132" y="10" width="109.43396226415095" height="40" as="geometry" />
        </mxCell>
        <mxCell id="uLttGmlVsf933TdkfEoV-6" value="&lt;font style=&quot;font-size: 14px;&quot;&gt;推送服务&lt;/font&gt;" style="rounded=0;whiteSpace=wrap;html=1;" vertex="1" parent="uLttGmlVsf933TdkfEoV-35">
          <mxGeometry x="254.7169811320755" y="10" width="109.43396226415095" height="40" as="geometry" />
        </mxCell>
        <mxCell id="uLttGmlVsf933TdkfEoV-7" value="&lt;font style=&quot;font-size: 14px;&quot;&gt;其他服务&lt;/font&gt;" style="rounded=0;whiteSpace=wrap;html=1;" vertex="1" parent="uLttGmlVsf933TdkfEoV-35">
          <mxGeometry x="377.35849056603774" y="10" width="109.43396226415095" height="40" as="geometry" />
        </mxCell>
        <mxCell id="uLttGmlVsf933TdkfEoV-36" value="" style="rounded=0;whiteSpace=wrap;html=1;" vertex="1" parent="1">
          <mxGeometry x="730" y="130" width="130" height="270" as="geometry" />
        </mxCell>
        <mxCell id="uLttGmlVsf933TdkfEoV-37" value="&lt;font style=&quot;font-size: 18px;&quot;&gt;数据治理&lt;/font&gt;" style="rounded=0;whiteSpace=wrap;html=1;strokeColor=none;" vertex="1" parent="1">
          <mxGeometry x="745" y="140" width="105" height="40" as="geometry" />
        </mxCell>
        <mxCell id="uLttGmlVsf933TdkfEoV-38" value="&lt;font style=&quot;font-size: 14px;&quot;&gt;任务调度&lt;/font&gt;" style="rounded=0;whiteSpace=wrap;html=1;" vertex="1" parent="1">
          <mxGeometry x="740" y="180" width="110" height="30" as="geometry" />
        </mxCell>
        <mxCell id="uLttGmlVsf933TdkfEoV-39" value="&lt;font style=&quot;font-size: 14px;&quot;&gt;数据标准&lt;/font&gt;" style="rounded=0;whiteSpace=wrap;html=1;" vertex="1" parent="1">
          <mxGeometry x="740" y="220" width="110" height="30" as="geometry" />
        </mxCell>
        <mxCell id="uLttGmlVsf933TdkfEoV-40" value="&lt;font style=&quot;font-size: 14px;&quot;&gt;数据资产&lt;/font&gt;" style="rounded=0;whiteSpace=wrap;html=1;" vertex="1" parent="1">
          <mxGeometry x="740" y="260" width="110" height="30" as="geometry" />
        </mxCell>
        <mxCell id="uLttGmlVsf933TdkfEoV-41" value="&lt;font style=&quot;font-size: 14px;&quot;&gt;分级分类&lt;/font&gt;" style="rounded=0;whiteSpace=wrap;html=1;" vertex="1" parent="1">
          <mxGeometry x="740" y="300" width="110" height="30" as="geometry" />
        </mxCell>
        <mxCell id="uLttGmlVsf933TdkfEoV-42" value="&lt;font style=&quot;font-size: 14px;&quot;&gt;数据开发&lt;/font&gt;" style="rounded=0;whiteSpace=wrap;html=1;" vertex="1" parent="1">
          <mxGeometry x="740" y="340" width="110" height="30" as="geometry" />
        </mxCell>
        <mxCell id="uLttGmlVsf933TdkfEoV-43" value="" style="rounded=0;whiteSpace=wrap;html=1;" vertex="1" parent="1">
          <mxGeometry x="870" y="130" width="128" height="270" as="geometry" />
        </mxCell>
        <mxCell id="uLttGmlVsf933TdkfEoV-44" value="&lt;font style=&quot;font-size: 18px;&quot;&gt;数据安全&lt;br&gt;管理&lt;/font&gt;" style="rounded=0;whiteSpace=wrap;html=1;strokeColor=none;" vertex="1" parent="1">
          <mxGeometry x="881.5" y="250" width="105" height="40" as="geometry" />
        </mxCell>
      </root>
    </mxGraphModel>
  </diagram>
</mxfile>
